<?xml version="1.0" encoding="UTF-8" standalone="no"?>
<svg width="15px" height="20px" viewBox="0 0 15 20" version="1.1" xmlns="http://www.w3.org/2000/svg" xmlns:xlink="http://www.w3.org/1999/xlink" xmlns:sketch="http://www.bohemiancoding.com/sketch/ns">
    <title>Fill 2 copy + Rectangle 453</title>
    <description>Created with Sketch (http://www.bohemiancoding.com/sketch)</description>
    <defs></defs>
    <g id="Page-1" stroke="none" stroke-width="1" fill="none" fill-rule="evenodd" sketch:type="MSPage">
        <g id="Artboard-1" sketch:type="MSArtboardGroup" transform="translate(-80.000000, -81.000000)" fill="#000000">
            <g id="Fill-2-copy-+-Rectangle-453" sketch:type="MSLayerGroup" transform="translate(72.000000, 76.000000)">
                <path d="M19.2930559,16.0277501 C19.2930559,15.7200435 20.596687,11.6266357 18.058902,10.3874723 C15.1356307,8.96186588 14.3280518,7.82350289 14.3512109,6 C14.3497168,6.07503191 12.5829045,8.96186588 13.734134,10.3874723 C15.5188759,12.5959874 14.7650858,14.3050477 13.734134,14.1474049 C12.0009396,13.8836563 12.2108653,11.5925303 12.4984859,11.0150119 C11.5922942,10.917243 10.5441599,11.4886982 10.0271899,12.2670596 C8.46806206,14.6165438 11.8462969,16.8652275 10.6450139,18.5348771 C9.73135155,19.808146 8.16923545,17.3017769 8.17521198,17.2813136 C6.32024582,27.1029154 19.7891081,27.3530218 20.529451,19.1616589 C20.7498356,16.705311 22.9305228,15.3698945 23,15.4009684 C20.6788643,14.3156582 19.2930559,16.1065715 19.2930559,16.0277501 L19.2930559,16.0277501 Z M14.7957151,23.9954586 C11.4948397,24.1235185 11.8351283,21.5075527 12.2774273,20.6642903 C12.8392461,19.592292 14.2620634,19.3812751 13.5365712,18 C13.5464678,18.021746 15.0796696,18.2657847 16.0540978,19.3321452 C17.5469522,20.9630968 17.3764272,23.8923664 14.7957151,23.9954586 Z M16.6655923,7.85743909 C16.2578566,7.48142388 16,7.0314498 16,6.71418697 C16,6.11905996 16.5664786,5.5467427 17.3327961,5 C17.4101531,5.47554864 17.0008058,6.19025402 17.3327961,6.71418697 C17.5906527,7.10195265 18,7.53879385 18,7.85743909 C18,8.28322101 17.8162772,8.67029549 17.3327961,9 C17.260274,8.84102298 17.1321515,8.31916364 16.6655923,7.85743909 Z" id="Fill-2" sketch:type="MSShapeGroup"></path>
            </g>
        </g>
    </g>
</svg>