<?xml version="1.0" encoding="UTF-8" standalone="no"?>
<svg width="25px" height="6px" viewBox="0 0 25 6" version="1.1" xmlns="http://www.w3.org/2000/svg" xmlns:xlink="http://www.w3.org/1999/xlink" xmlns:sketch="http://www.bohemiancoding.com/sketch/ns">
    <title>Oval 22 + Oval 22 copy + Oval 22 copy 3</title>
    <description>Created with Sketch (http://www.bohemiancoding.com/sketch)</description>
    <defs></defs>
    <g id="Page-1" stroke="none" stroke-width="1" fill="none" fill-rule="evenodd" sketch:type="MSPage">
        <g id="DetailLayout_v2" sketch:type="MSArtboardGroup" transform="translate(-795.000000, -182.000000)" fill="#9B9B9B">
            <g id="Group" sketch:type="MSLayerGroup" transform="translate(50.000000, 170.000000)">
                <g id="Oval-22-+-Oval-22-copy-+-Oval-22-copy-3" transform="translate(745.000000, 12.500000)" sketch:type="MSShapeGroup">
                    <path d="M2.5,5 C3.88071194,5 5,3.88071194 5,2.5 C5,1.11928806 3.88071194,0 2.5,0 C1.11928806,0 0,1.11928806 0,2.5 C0,3.88071194 1.11928806,5 2.5,5 Z" id="Oval-22"></path>
                    <path d="M12.5,5 C13.8807119,5 15,3.88071194 15,2.5 C15,1.11928806 13.8807119,0 12.5,0 C11.1192881,0 10,1.11928806 10,2.5 C10,3.88071194 11.1192881,5 12.5,5 Z" id="Oval-22-copy"></path>
                    <path d="M22.5,5 C23.8807119,5 25,3.88071194 25,2.5 C25,1.11928806 23.8807119,0 22.5,0 C21.1192881,0 20,1.11928806 20,2.5 C20,3.88071194 21.1192881,5 22.5,5 Z" id="Oval-22-copy-2"></path>
                </g>
            </g>
        </g>
    </g>
</svg>