<?xml version="1.0" encoding="UTF-8" standalone="no"?>
<svg width="13px" height="12px" viewBox="0 0 13 12" version="1.1" xmlns="http://www.w3.org/2000/svg" xmlns:xlink="http://www.w3.org/1999/xlink" xmlns:sketch="http://www.bohemiancoding.com/sketch/ns">
    <title>Fill 1 + Fill 2</title>
    <description>Created with Sketch (http://www.bohemiancoding.com/sketch)</description>
    <defs></defs>
    <g id="Page-1" stroke="none" stroke-width="1" fill="none" fill-rule="evenodd" sketch:type="MSPage">
        <g id="ObjectPage-copy" sketch:type="MSArtboardGroup" transform="translate(-1120.000000, -150.000000)" fill="#49BAE2">
            <g id="Rectangle-4-+-Fill-1-+-Fill-2-+-Print-Report" sketch:type="MSLayerGroup" transform="translate(1100.000000, 144.000000)">
                <g id="Fill-1-+-Fill-2-+-Print-Report" transform="translate(20.000000, 6.000000)" sketch:type="MSShapeGroup">
                    <g id="Fill-1-+-Fill-2" transform="translate(0.000000, 1.000000)">
                        <path d="M10.6839429,4.22157776 L9.58194321,4.22157776 L9.58194321,5.0582812 L10.3091888,5.0582812 L11.3499662,6.21408219 L11.3499662,9.39949198 L0.997848226,9.39949198 L0.997848226,6.21408219 L2.03862568,5.0582812 L2.77329212,5.0582812 L2.77329212,4.22157776 L1.66572681,4.22157776 L0.163,5.89498465 L0.163,10.232485 L12.1848145,10.232485 L12.1848145,5.89498465 L10.6839429,4.22157776" id="Fill-1"></path>
                        <path d="M2.77329212,6.07494082 L9.58194321,6.07494082 L9.58194321,-0.179 L4.7398235,-0.179 L4.7398235,-0.173434345 L2.77329212,1.78938659 L2.77329212,6.07494082 L2.77329212,6.07494082 Z M3.55619423,2.57228871 L5.52087039,2.57228871 L5.52087039,0.603902114 L8.79718587,0.603902114 L8.79718587,5.29389393 L3.55619423,5.29389393 L3.55619423,2.57228871 L3.55619423,2.57228871 Z" id="Fill-2"></path>
                    </g>
                </g>
            </g>
        </g>
    </g>
</svg>