<?xml version="1.0" encoding="UTF-8" standalone="no"?>
<svg width="57px" height="41px" viewBox="0 0 57 41" version="1.1" xmlns="http://www.w3.org/2000/svg" xmlns:xlink="http://www.w3.org/1999/xlink" xmlns:sketch="http://www.bohemiancoding.com/sketch/ns">
    <title>Registry_Icon copy</title>
    <description>Created with Sketch (http://www.bohemiancoding.com/sketch)</description>
    <defs></defs>
    <g id="Page-1" stroke="none" stroke-width="1" fill="none" fill-rule="evenodd" sketch:type="MSPage">
        <g id="Care-Manager-Dash---States" sketch:type="MSArtboardGroup" transform="translate(-479.000000, -739.000000)" fill="#49BAE2">
            <g id="Group" sketch:type="MSLayerGroup" transform="translate(46.000000, 97.000000)">
                <g id="Group-copy" transform="translate(400.000000, 400.000000)" sketch:type="MSShapeGroup">
                    <g id="Registry_Icon-copy" transform="translate(33.000000, 242.000000)">
                        <path d="M13.6414588,35.4389575 L13.6414588,35.4197531 C13.6414588,34.430727 14.0592398,31.3388203 18.4186941,28.515775 C19.2179273,27.3635117 19.8809277,25.7983539 20.543928,24.0027435 C21.00712,22.744856 20.9253802,21.6886145 20.9253802,20.1714678 C20.9253802,19.048011 21.1251885,17.2524005 20.870887,16.2537723 C19.9808318,12.9218107 17.7375293,12 15.1127746,12 C12.4880199,12 10.2447174,12.9218107 9.36374436,16.2729767 C9.09127848,17.2524005 9.30016899,19.048011 9.30016899,20.1714678 C9.30016899,21.6886145 9.21842922,22.7544582 9.69070343,24.0027435 C10.4990189,26.1824417 11.2619234,27.9876543 12.2791294,29.1495199 C8.2920452,29.9176955 5.59463291,32.1262003 3.77819365,32.9903978 C0.0181643926,34.7475995 0,36.696845 0,36.696845 L0,40 L13.6414588,39.9903978 L13.6414588,35.4389575" id="Fill-1"></path>
                        <path d="M51.9923664,30.7090818 C49.5757906,29.4508483 45.9901854,26.2183134 40.6859324,25.0930639 C42.0381679,23.3847305 43.0676118,20.7352794 44.1232279,17.5641218 C44.7339149,15.7432635 44.6292257,14.1883733 44.6292257,11.9685629 C44.6292257,10.3216068 44.8909487,7.69261477 44.5419847,6.2502495 C43.3729553,1.36052894 40.4154853,0 36.9520174,0 C33.4798255,0 30.5223555,1.36052894 29.3533261,6.26047904 C29.0130862,7.69261477 29.2748092,10.3318363 29.2748092,11.9685629 C29.2748092,14.1883733 29.17012,15.7432635 29.780807,17.5845808 C30.8538713,20.7659681 31.8571429,23.4154192 33.2093784,25.113523 C27.9400218,26.2592315 24.389313,29.4713074 21.9901854,30.7193114 C17.0174482,33.3176148 17,36.1614271 17,36.1614271 L17,41 L57,40.9897705 L57,36.1614271 C57,36.1614271 56.9738277,33.3073852 51.9923664,30.7090818" id="Fill-2"></path>
                    </g>
                </g>
            </g>
        </g>
    </g>
</svg>