<?xml version="1.0" encoding="UTF-8" standalone="no"?>
<svg width="20px" height="19px" viewBox="0 0 20 19" version="1.1" xmlns="http://www.w3.org/2000/svg" xmlns:xlink="http://www.w3.org/1999/xlink" xmlns:sketch="http://www.bohemiancoding.com/sketch/ns">
    <title>Registry_Icon copy</title>
    <description>Created with Sketch (http://www.bohemiancoding.com/sketch)</description>
    <defs></defs>
    <g id="Page-1" stroke="none" stroke-width="1" fill="none" fill-rule="evenodd" sketch:type="MSPage">
        <g id="Care-Manager-Dash---States" sketch:type="MSArtboardGroup" transform="translate(-397.000000, -507.000000)" fill="#49BAE2">
            <g id="Group" sketch:type="MSLayerGroup" transform="translate(46.000000, 97.000000)">
                <g id="Group-copy" transform="translate(0.000000, 400.000000)" sketch:type="MSShapeGroup">
                    <g id="Registry_Icon-copy" transform="translate(351.943651, 10.000000)">
                        <path d="M16.1125409,13.8565369 C14.9948746,13.2887974 13.3365322,11.8302146 10.8833152,11.32248 C11.5087241,10.5516467 11.9848419,9.35616267 12.4730643,7.92527445 C12.7555071,7.10366766 12.7070883,6.40207086 12.7070883,5.4004491 C12.7070883,4.65731038 12.8281352,3.47105788 12.6667394,2.82023453 C12.1260632,0.613897206 10.7582334,0 9.1563795,0 C7.55049073,0 6.18266085,0.613897206 5.64198473,2.8248503 C5.48462377,3.47105788 5.60567067,4.66192615 5.60567067,5.4004491 C5.60567067,6.40207086 5.55725191,7.10366766 5.83969466,7.93450599 C6.33598691,9.37000998 6.8,10.565494 7.42540894,11.3317116 C4.98833152,11.8486776 3.34612868,13.2980289 2.23653217,13.8611527 C-0.0633587786,15.0335579 -0.0714285714,16.3167415 -0.0714285714,16.3167415 L-0.0714285714,18.5 L18.4285714,18.4953842 L18.4285714,16.3167415 C18.4285714,16.3167415 18.4164667,15.0289421 16.1125409,13.8565369" id="Fill-2"></path>
                    </g>
                </g>
            </g>
        </g>
    </g>
</svg>