<?xml version="1.0" encoding="UTF-8" standalone="no"?>
<svg width="42px" height="49px" viewBox="0 0 42 49" version="1.1" xmlns="http://www.w3.org/2000/svg" xmlns:xlink="http://www.w3.org/1999/xlink" xmlns:sketch="http://www.bohemiancoding.com/sketch/ns">
    <title>Imported Layers</title>
    <description>Created with Sketch (http://www.bohemiancoding.com/sketch)</description>
    <defs></defs>
    <g id="Page-1" stroke="none" stroke-width="1" fill="none" fill-rule="evenodd" sketch:type="MSPage">
        <g id="Care-Manager-Dash" sketch:type="MSArtboardGroup" transform="translate(-78.000000, -731.000000)" fill="#49BAE2">
            <g id="Group" sketch:type="MSLayerGroup" transform="translate(49.000000, 96.000000)">
                <g id="Imported-Layers" transform="translate(29.000000, 635.000000)" sketch:type="MSShapeGroup">
                    <path d="M36.386,7.06057143 L36.386,4.48285714 C36.386,1.93485714 34.8093333,0.419428571 32.1546667,0.419428571 C29.5,0.419428571 27.916,1.93485714 27.916,4.48285714 L27.916,7.06057143 L25.0486667,7.06057143 L25.0486667,4.48285714 C25.0486667,1.93485714 23.4646667,0.419428571 20.8026667,0.419428571 C18.148,0.419428571 16.564,1.93485714 16.564,4.48285714 L16.564,7.06057143 L13.6966667,7.06057143 L13.6966667,4.48285714 C13.6966667,1.93485714 12.1053333,0.419428571 9.458,0.419428571 C6.80333333,0.419428571 5.21933333,1.93485714 5.21933333,4.48285714 L5.21933333,7.06057143 L0.35,7.06057143 L0.35,48.4451429 L41.204,48.4451429 L41.204,7.06057143 L36.386,7.06057143 L36.386,7.06057143 Z M30.182,4.48285714 C30.182,3.22742857 30.7466667,2.71485714 32.1546667,2.71485714 C33.5553333,2.71485714 34.12,3.22742857 34.12,4.48285714 L34.12,11.3914286 C34.12,12.6468571 33.5553333,13.152 32.1546667,13.152 C30.7466667,13.152 30.182,12.6468571 30.182,11.3914286 L30.182,4.48285714 L30.182,4.48285714 Z M18.83,4.48285714 C18.83,3.22742857 19.402,2.71485714 20.8026667,2.71485714 C22.2033333,2.71485714 22.7753333,3.22742857 22.7753333,4.48285714 L22.7753333,11.3914286 C22.7753333,12.6468571 22.2033333,13.152 20.8026667,13.152 C19.402,13.152 18.83,12.6468571 18.83,11.3914286 L18.83,4.48285714 L18.83,4.48285714 Z M7.48533333,4.48285714 C7.48533333,3.22742857 8.05733333,2.71485714 9.458,2.71485714 C10.8513333,2.71485714 11.416,3.22742857 11.416,4.48285714 L11.416,11.3914286 C11.416,12.6468571 10.8513333,13.152 9.458,13.152 C8.05733333,13.152 7.48533333,12.6468571 7.48533333,11.3914286 L7.48533333,4.48285714 L7.48533333,4.48285714 Z M3.76,16.2571429 L37.8013333,16.2571429 L37.8013333,44.9908571 L3.76,44.9908571 L3.76,16.2571429 Z" id="Fill-1"></path>
                    <path d="M20.876,33.9371429 C20.876,31.7382857 19.4166667,30.5274286 16.8573333,29.792 L16.8573333,29.74 C19.16,28.9451429 20.4066667,27.6748571 20.4066667,25.6988571 C20.4066667,23.6931429 18.4486667,22.1034286 15.0826667,22.1034286 C13.4913333,22.1034286 11.834,22.3188571 10.426,22.9874286 L10.8073333,25.8845714 C11.8926667,25.3571429 13.0366667,25.0154286 14.21,25.0154286 C16.0286667,25.0154286 16.52,25.6468571 16.52,26.5977143 C16.52,27.972 15.222,28.5811429 13,28.7297143 L13,31.6417143 C16.212,31.82 17.2533333,32.5108571 17.2533333,34.1748571 C17.2533333,35.3931429 16.1093333,36.3142857 14.3346667,36.3142857 C12.868,36.3142857 11.724,36.0988571 10.3526667,35.5714286 L9.95666667,38.476 C11.0786667,38.9217143 12.5526667,39.2114286 13.968,39.2114286 C17.8473333,39.2114286 20.876,37.3914286 20.876,33.9371429" id="Fill-2"></path>
                    <path d="M26.838,26.6794286 L26.838,38.9514286 L30.3286667,38.9514286 L30.3286667,22.3782857 L28.5833333,22.3782857 L23.5746667,24.8817143 L23.9706667,27.7862857 L26.838,26.6794286" id="Fill-3"></path>
                </g>
            </g>
        </g>
    </g>
</svg>